<svg width="873" height="199" viewBox="0 0 873 199" fill="none" xmlns="http://www.w3.org/2000/svg">
<path d="M42.5702 31.2716C35.3893 30.8593 19.4216 32.638 12.2252 37.1684C10.5596 38.217 10.0845 40.0313 9.71934 41.6828C9.35418 43.3342 9.35418 45.0723 10.3733 46.2438C17.4141 54.3377 36.1658 47.8543 43.3261 45.989C46.6116 45.1331 46.6538 40.0931 46.4074 37.1045C45.8815 35.7728 44.5419 34.8165 42.7618 34.3238C40.9818 33.8312 38.8018 33.8312 35.6967 34.668" stroke="white" stroke-width="19" stroke-linecap="round"/>
<path d="M35.4224 118C29.1766 118 15.7168 118.937 12.994 121.13C10.2925 123.306 10.0696 128.038 10.9796 132.047C13.0533 141.185 32.5536 134.949 38.7543 134.594C41.3176 134.448 42.5202 132.959 43.3734 131.516C44.2267 130.072 44.649 128.359 44.4473 126.79C44.2457 125.221 43.4072 123.849 39.1491 122" stroke="white" stroke-width="19" stroke-linecap="round"/>
<path d="M108.202 14.8881C108.14 14.8261 108.078 14.7641 116.868 14.7322C125.657 14.7003 143.301 14.7003 152.853 14.7539C166.441 14.8302 180.36 16.7923 190.509 17.9489C198.668 18.8787 205.648 20.302 212.861 21.5996C237.885 26.1013 243.479 29.6752 247.496 32.5885C252.101 35.9275 258.864 37.7645 263.775 40.3194C267.822 42.424 267.448 49.9321 268.033 55.3031C268.489 59.4889 268.541 63.6053 268.89 70.4112C270.115 94.3153 268.469 97.4861 265.197 106.942C263.78 111.04 261.342 114.512 256.753 121.197C248.387 133.384 241.603 141.996 236.17 146.569C224.945 156.015 216.126 161.873 213.461 163.179C205.338 167.158 200.274 167.588 181.355 175.719C176.427 177.837 168.045 179.788 154.958 183.078C140.105 186.813 130.065 186.977 121.82 188.256C113.919 189.483 107.636 191.671 106.018 192.17C105.728 192.26 106.639 192.285 119.166 187.725C131.693 183.166 155.84 174.088 170.297 168.421C188.929 161.116 194.8 158.002 199.183 155.885C201.783 154.629 204.863 152.457 210.904 148.174C225.877 137.557 235.499 130.034 239.409 126.304C242.637 123.225 248.663 118.03 251.157 115.214C253.652 112.398 252.503 112.193 250.287 112.71C248.071 113.228 244.824 114.476 235.939 119.846C227.054 125.216 212.629 134.67 201.359 141.337C190.088 148.003 182.409 151.595 175.44 155.523C154.227 167.481 149.089 171.487 143.838 174.277C141.589 175.473 140.28 176.397 151.604 172.586C162.928 168.775 186.949 160.246 200.539 155.161C220.461 147.707 223.524 144.427 228.603 142.075C233.832 139.653 238.374 136.84 237.76 137.704C231.796 146.09 222.809 150.238 219.049 152.451C213.149 155.925 207.786 159.189 204.084 160.734C202.355 161.455 200.847 161.836 203.621 161.954C213.468 162.374 224.768 160.952 231.713 159.567C239.64 157.987 246.116 151.782 252.984 146.506C256.403 143.879 257.597 140.399 261.093 127.049C263.506 117.833 266.922 114.795 268.623 111.884C268.858 111.481 261.188 122.161 251.099 137.087C246.004 144.624 243.731 146.853 242.482 148.1C241.136 149.444 245.608 143.411 254.441 131.228C263.977 118.074 265.773 112.146 268.017 106.885C270.826 100.3 250.153 104.083 244.807 102.29C237.937 99.9866 234.2 95.8194 217.927 86.6683C214.247 84.5991 212.796 84.1868 200.643 78.8399C188.491 73.4929 165.626 63.3219 150.584 57.0376C129.235 48.1182 120.922 45.7831 116.784 43.1479C109.61 38.5801 104.505 33.632 102.621 31.1408C101.814 30.0721 101.504 29.2576 101.403 26.3122C101.303 23.3669 101.472 18.279 107.45 15.1528C113.429 12.0266 125.211 11.0163 132.102 10.3035C140.659 9.4183 150.845 7.95192 164.29 6.65218C172.452 5.8632 190.998 5.88236 201.768 6.2247C203.374 6.27576 211.354 9.26152 225.264 14.4905C238.236 19.367 245.804 24.2373 249.015 26.205C255.45 30.1489 267.1 36.0448 273.23 40.9786C274.34 41.8715 275.285 42.6855 276.06 43.4814C283.94 51.5663 277.788 73.8613 276.737 77.1716C273.967 85.8988 270.269 98.2503 269.082 99.4493C268.031 100.511 259.813 98.8796 247.89 96.7661C243.028 95.9041 240.665 95.0008 231.616 89.6087C222.568 84.2167 206.927 74.2435 197.869 68.637C186.941 61.8737 181.732 59.2354 170.305 53.4833C162.038 49.3215 148.173 43.8513 139.582 39.9243C122.928 32.3127 118.735 27.9682 116.535 25.7354C115.675 24.8616 125.406 24.4227 137.486 24.3171C145.497 24.2471 151.157 26.3686 165.288 33.9399C176.915 40.1705 196.918 52.4712 212.233 61.0965C227.548 69.7218 237.397 74.611 243.532 77.7135C254.929 83.4772 257.697 85.7898 260.529 88.1562C260.786 88.371 258.432 87.9021 243.808 80.3081C229.184 72.7141 201.817 57.9904 186.326 49.8373C168.183 40.2886 163.826 39.0252 157.048 37.8118C142.237 35.1603 131.116 33.8185 128.763 33.0126C127.691 32.6454 126.969 32.0936 127.375 31.5093C128.719 29.5787 142.949 29.4281 164.99 30.4505C175.135 30.9212 182.945 34.077 190.946 37.2215C198.947 40.366 206.847 44.1151 213.993 48.2096C221.139 52.3042 227.292 56.6307 233.522 61.9726C246.366 72.9871 252.896 80.5132 255.181 82.5491C259.302 86.2206 262.558 89.5701 263.284 89.8086C263.791 89.9748 261.518 87.6732 252.233 79.4308C242.949 71.1883 225.94 56.4203 213.742 46.5937C195.195 31.6536 186.27 27.6018 182.475 27.2483C170.541 26.1363 164.412 24.6856 161.519 23.5599C160.306 23.088 159.75 22.4942 160.568 22.2296C163.494 21.2839 175.04 23.8854 195.037 29.42C206.105 32.4835 218.369 38.2846 227.43 42.6976C242.147 49.8652 248.352 55.0092 253.208 58.8152C263.231 66.6691 270.722 71.7785 271.949 73.0101C272.592 73.6561 273.272 74.35 265.144 68.5377C257.015 62.7254 240.055 50.3872 230.78 43.7617C221.505 37.1361 220.429 36.597 215.607 33.7867C210.785 30.9763 202.25 25.911 198.351 23.4231C194.451 20.9352 195.446 21.1782 204.482 25.381C213.519 29.5838 230.567 37.739 240.877 43.1832C259.86 53.2073 261.952 58.5805 262.436 59.0688C263.151 59.7904 252.465 49.5243 238.701 37.3005C233.189 32.4055 231.606 31.5792 225.761 29.2326C211.574 23.5374 200.158 19.2599 196.436 16.8738C194.425 15.5849 192.323 13.9024 200.012 16.7252C207.701 19.5481 225.285 26.8671 237.76 32.6164C257.388 41.6619 266.229 48.1981 269.684 51.2621C273.548 54.6905 274.492 59.1103 274.144 60.105C273.985 60.5571 272.829 60.0441 264.362 58.346C255.895 56.648 239.888 53.561 231.25 51.8689C222.611 50.1768 221.827 49.9732 221.854 49.9553C222.601 49.452 231.454 55.8816 245.319 66.125C261.122 77.7993 262.942 82.2054 265.268 85.0525C266.641 86.734 267.919 88.7795 268.515 90.3814C270.068 94.5591 255.581 90.7468 241.263 88.1552C234.68 86.9636 222.87 80.432 208.752 72.6789C203.67 69.8878 202.999 69.0891 195.852 65.0635C188.705 61.038 175.15 53.7258 166.039 48.3077C146.767 36.8466 143.993 34.0051 139.771 32.2187C132.331 29.0706 127.032 25.863 120.315 22.2099C116.396 20.0782 112.002 18.2921 107.167 16.3715C105.339 15.6455 103.745 14.8231 101.836 14.2206C99.8487 13.5936 110.04 15.8538 129.369 20.6035C142.402 23.8062 152.427 24.0876 159.487 23.6803C161.665 23.5547 148.583 20.4782 129.196 18.5568C122.055 17.8491 120.418 17.392 118.726 17.1447C117.034 16.8973 115.343 16.799 114.377 22.5391C113.411 28.2792 113.221 39.8609 111.364 56.699C109.508 73.5372 105.991 95.2809 103.687 108.125C100.779 124.326 98.1167 130.5 95.8757 135.519C91.395 145.555 88.3992 159.192 87.3029 163.611C86.4496 167.05 89.3098 172.373 91.5337 176.81C91.9409 177.622 91.9757 178.527 92.3052 178.49C93.5925 178.342 95.6738 168.653 98.8047 157.321C100.046 154.983 98.5398 164.47 95.9528 177.951C95.0086 183.119 94.8128 184.892 93.7675 185.923" stroke="white" stroke-width="12" stroke-linecap="round"/>
<path d="M219.373 74.1572C219.994 75.2016 222.273 77.7601 224.573 79.3009C226.698 80.7237 227.795 83.6083 230.445 88.7999C231.985 91.8166 232.739 96.1347 233.493 100.657C234.594 107.259 233.546 116.467 232.186 121.61C231.148 125.535 228.979 130.472 227.19 134.263C225.744 136.791 224.318 139.186 223.123 140.793C222.488 141.445 221.796 141.764 221.083 142.093" stroke="white" stroke-width="37" stroke-linecap="round"/>
<path d="M311.588 162V68.9091H348.315C355.346 68.9091 361.346 70.1667 366.315 72.6818C371.315 75.1667 375.118 78.697 377.724 83.2727C380.361 87.8182 381.679 93.1667 381.679 99.3182C381.679 105.5 380.346 110.818 377.679 115.273C375.012 119.697 371.149 123.091 366.088 125.455C361.058 127.818 354.967 129 347.815 129H323.224V113.182H344.633C348.391 113.182 351.512 112.667 353.997 111.636C356.482 110.606 358.33 109.061 359.543 107C360.785 104.939 361.406 102.379 361.406 99.3182C361.406 96.2273 360.785 93.6212 359.543 91.5C358.33 89.3788 356.467 87.7727 353.952 86.6818C351.467 85.5606 348.33 85 344.543 85H331.27V162H311.588ZM361.861 119.636L384.997 162H363.27L340.633 119.636H361.861ZM481.133 115.455C481.133 125.606 479.209 134.242 475.361 141.364C471.543 148.485 466.33 153.924 459.724 157.682C453.149 161.409 445.755 163.273 437.543 163.273C429.27 163.273 421.846 161.394 415.27 157.636C408.694 153.879 403.497 148.439 399.679 141.318C395.861 134.197 393.952 125.576 393.952 115.455C393.952 105.303 395.861 96.6667 399.679 89.5455C403.497 82.4242 408.694 77 415.27 73.2727C421.846 69.5151 429.27 67.6364 437.543 67.6364C445.755 67.6364 453.149 69.5151 459.724 73.2727C466.33 77 471.543 82.4242 475.361 89.5455C479.209 96.6667 481.133 105.303 481.133 115.455ZM461.179 115.455C461.179 108.879 460.194 103.333 458.224 98.8182C456.285 94.303 453.543 90.8788 449.997 88.5455C446.452 86.2121 442.3 85.0455 437.543 85.0455C432.785 85.0455 428.633 86.2121 425.088 88.5455C421.543 90.8788 418.785 94.303 416.815 98.8182C414.876 103.333 413.906 108.879 413.906 115.455C413.906 122.03 414.876 127.576 416.815 132.091C418.785 136.606 421.543 140.03 425.088 142.364C428.633 144.697 432.785 145.864 437.543 145.864C442.3 145.864 446.452 144.697 449.997 142.364C453.543 140.03 456.285 136.606 458.224 132.091C460.194 127.576 461.179 122.03 461.179 115.455ZM495.713 162V68.9091H532.44C539.501 68.9091 545.516 70.2576 550.486 72.9545C555.455 75.6212 559.243 79.3333 561.849 84.0909C564.486 88.8182 565.804 94.2727 565.804 100.455C565.804 106.636 564.471 112.091 561.804 116.818C559.137 121.545 555.274 125.227 550.213 127.864C545.183 130.5 539.092 131.818 531.94 131.818H508.531V116.045H528.758C532.546 116.045 535.668 115.394 538.122 114.091C540.607 112.758 542.455 110.924 543.668 108.591C544.91 106.227 545.531 103.515 545.531 100.455C545.531 97.3636 544.91 94.6667 543.668 92.3636C542.455 90.0303 540.607 88.2273 538.122 86.9545C535.637 85.6515 532.486 85 528.668 85H515.395V162H495.713ZM611.713 86.224H612.993C615.382 86.224 616.748 87.632 617.089 90.448C617.089 92.9227 613.718 94.16 606.977 94.16C596.14 98.256 588.844 104.229 585.089 112.08L584.193 115.792V116.56C584.193 120.315 586.71 122.192 591.745 122.192L605.825 121.424C615.297 121.424 621.697 126.032 625.025 135.248L625.793 139.728C625.793 148.603 618.625 156.709 604.289 164.048C600.022 165.243 596.268 166.053 593.025 166.48C584.321 166.48 578.177 161.573 574.593 151.76C573.569 148.432 573.057 145.061 573.057 141.648C573.057 140.624 573.868 139.557 575.489 138.448H577.025C579.67 138.448 580.993 141.819 580.993 148.56C583.212 155.216 586.71 158.544 591.489 158.544H594.945C601.857 158.544 608.684 154.533 615.425 146.512C617.217 143.952 618.113 141.179 618.113 138.192C618.113 134.011 614.828 131.067 608.257 129.36H607.745L590.977 129.744C581.676 128.635 577.025 124.795 577.025 118.224L576.513 116.56C576.513 107.771 583.084 99.2373 596.225 90.96C601.942 87.8027 607.105 86.224 611.713 86.224ZM656.139 81.232L694.539 78.8C695.648 78.8 696.715 79.8667 697.739 82C697.739 85.2427 693.984 86.864 686.475 86.864L664.075 88.144L663.563 88.4C665.696 102.309 666.763 128.72 666.763 167.632C666.336 171.387 664.971 173.264 662.667 173.264C660.448 173.264 659.168 171.557 658.827 168.144V138.448C658.827 118.651 657.931 102.139 656.139 88.912C640.864 90.3627 633.227 92.0693 633.227 94.032L632.075 94.544C629.43 93.776 628.107 92.4107 628.107 90.448C628.107 85.7547 637.451 82.6827 656.139 81.232ZM714.738 104.4C714.738 92.112 716.615 85.968 720.37 85.968C724.125 85.968 726.002 92.9227 726.002 106.832L724.338 125.648C724.338 141.691 726.471 154.064 730.738 162.768V163.28C730.738 164.987 729.586 166.053 727.282 166.48H726.77C723.613 166.309 720.839 160.293 718.45 148.432H717.938C713.501 161.744 707.826 168.4 700.914 168.4C694.002 168.4 689.565 162.811 687.602 151.632L687.218 144.08V141.648L689.138 112.464V106.832C689.138 105.125 690.119 103.803 692.082 102.864H693.234C695.623 102.864 696.818 104.443 696.818 107.6V108.368L694.77 142.544V147.28C694.77 154.107 696.391 158.629 699.634 160.848H701.938C706.29 158.203 710.471 149.243 714.482 133.968L716.402 125.264L714.738 104.4ZM749.967 87.248C761.999 87.248 773.604 93.648 784.783 106.448C788.196 113.189 789.903 119.717 789.903 126.032C789.903 140.88 782.351 151.803 767.247 158.8C762.383 160.933 757.135 162 751.503 162H748.303C745.146 161.915 743.567 160.592 743.567 158.032H743.183C743.183 155.728 744.634 154.533 747.535 154.448H750.479V153.68H750.735C745.444 131.237 742.799 114.555 742.799 103.632H742.415L739.215 105.68C736.996 105.68 735.674 104.187 735.247 101.2C735.247 96.5067 737.892 92.4107 743.183 88.912C745.316 87.8027 747.578 87.248 749.967 87.248ZM751.503 94.8H750.479V100.944C750.479 114.939 753.124 132.517 758.415 153.68H758.799C774.586 149.413 782.479 140.197 782.479 126.032C782.479 110.843 773.647 100.688 755.983 95.568C754.959 95.056 753.466 94.8 751.503 94.8ZM800.945 91.088C802.993 91.088 804.316 92.1547 804.913 94.288L804.145 101.84V104.272C806.278 121.936 807.601 135.675 808.113 145.488C809.052 154.619 810.033 159.184 811.057 159.184C811.057 160.976 809.564 162.128 806.577 162.64C802.31 162.64 800.177 154.021 800.177 136.784L796.593 103.504V102.352C796.593 94.8427 798.044 91.088 800.945 91.088ZM833.81 92.752L837.01 92.24H838.29C839.997 92.24 841.874 93.3067 843.922 95.44C847.677 95.44 853.01 100.133 859.922 109.52C865.81 120.613 868.754 130.469 868.754 139.088C868.754 150.864 864.487 158.715 855.954 162.64L847.89 164.304C835.09 164.304 825.874 154.704 820.242 135.504C818.962 130.469 818.322 125.563 818.322 120.784V119.504C818.322 105.083 823.485 96.1653 833.81 92.752ZM832.658 105.04L829.842 103.888C827.197 107.045 825.874 111.611 825.874 117.584V121.04C825.874 136.827 831.207 148.304 841.874 155.472L845.458 156.24H850.322C854.759 156.24 857.959 153.467 859.922 147.92L860.69 142.288V138.32C860.69 125.52 855.613 114.043 845.458 103.888L840.21 102.352H839.954C838.247 102.352 835.815 103.248 832.658 105.04Z" fill="white"/>
<path d="M313.858 72.0756C313.858 72.0521 313.858 72.0287 313.72 86.6119C313.582 101.195 313.307 130.386 313.031 145.278C312.756 160.17 312.489 159.88 312.318 159.494C312.147 159.108 312.08 158.636 312.088 148.485C312.095 138.335 312.18 118.521 312.421 106.972C312.661 95.4241 313.054 92.7419 313.257 90.9098C313.558 88.1863 313.431 86.6948 313.374 85.6832C313.33 84.8825 313.038 88.3144 311.918 99.163C311.188 106.243 309.57 116.456 308.741 126.897C307.912 137.337 307.779 147.678 307.798 153.933C307.816 160.187 307.992 162.041 308.226 162.941C308.46 163.842 308.749 163.733 309.354 163.595C309.959 163.457 310.874 163.293 314.517 163.032C318.161 162.771 324.507 162.417 327.95 162.179C331.394 161.94 331.742 161.828 331.932 161.591C332.326 161.098 332.041 159.893 331.836 153.942C331.657 148.726 331.71 139.042 331.643 133.765C331.577 128.488 331.487 127.908 331.285 119.515C331.083 111.121 330.771 94.9311 330.385 78.2505" stroke="white" stroke-width="7" stroke-linecap="round"/>
<path d="M315.991 71.7348C315.968 71.7117 315.945 71.6886 319.688 71.6767C323.431 71.6648 330.941 71.6648 335.106 71.709C339.272 71.7533 339.865 71.8419 342.826 71.8875C345.786 71.9331 351.095 71.9331 353.971 71.9507C357.897 71.9748 361.061 73.7169 365.5 75.6791C367.401 76.5191 369.474 77.1313 371.782 78.2371C373.723 79.1674 374.312 81.3326 374.908 83.8266C375.54 86.4741 375.647 89.739 375.822 92.3188C375.922 93.8 376.189 98.0121 376.344 103.926C376.412 106.534 376.103 107.736 375.608 109.281C375.058 110.999 372.458 114.689 369.293 119.204C367.146 122.269 365.312 124.824 363.184 126.332C362.718 126.59 362.429 126.699 362.022 126.772C361.614 126.846 361.098 126.881 360.566 126.918" stroke="white" stroke-width="7" stroke-linecap="round"/>
<path d="M364.808 127.964C364.861 128.668 365.568 131.452 370.517 139.584C373.46 144.42 376.333 147.724 378.127 150.084C381.886 155.026 383.346 159.352 384.255 161.244C384.529 161.814 384.885 162.468 383.017 162.298C381.149 162.129 377.051 161.113 374.291 160.331C370.192 159.169 368.041 157.929 365.867 156.345C362.682 154.023 359.82 150.989 356.853 147.018C354.97 144.5 352.654 140.719 351.07 137.936C347.473 131.613 346.923 130.406 345.806 129.427C344.37 129.261 342.068 129.799 334.561 129.951C333.041 129.918 332.778 129.806 332.506 129.69" stroke="white" stroke-width="7" stroke-linecap="round"/>
<path d="M336.572 79.6636C336.501 79.6636 336.464 81.2725 336.096 85.8237C335.728 88.7661 334.992 92.9932 334.613 97.2129C334.234 101.433 334.234 105.517 334.234 109.725" stroke="white" stroke-width="7" stroke-linecap="round"/>
<path d="M397.554 107.212C397.366 104.055 398.138 94.3468 406.596 82.2928C410.753 76.3668 417.43 73.9359 428.269 71.2147C434.354 69.687 443.235 68.6995 452.909 68.8915C462.902 69.0897 469.796 79.6392 471.939 82.6304C475.252 87.2546 478.983 102.959 480.062 111.422C480.962 118.487 479.924 130.893 477.627 137.501C472.571 152.046 465.462 156.232 460.642 159.395C455.146 163.002 448.839 166.254 440.152 166.386C433.248 166.49 427.466 159.848 423.565 157.807C417.613 154.692 415.309 151.798 413.388 148.827C411.429 145.797 408.661 144.042 405.801 141.738C402.504 139.082 399.415 129.169 397.789 120.271C396.225 111.713 400.189 103.235 402.098 93.246C402.908 90.4551 403.842 88.8938 405.359 87.8765C406.31 87.5057 407.628 87.4304 408.986 87.3528" stroke="white" stroke-width="7" stroke-linecap="round"/>
<path d="M421.291 93.8838C421.016 94.9547 419.78 98.7828 416.928 104.059C413.22 110.918 411.568 118.851 411.576 124.487C411.582 128.703 414.636 131.852 416.673 135.317C419.01 139.293 423.514 142.331 429.214 144.503C438.197 147.926 445.46 145.915 449.677 143.931C456.01 140.952 458.569 134.444 460.382 130.441C462.516 125.728 463.541 119.082 463.794 113.228C463.835 111.862 463.919 111.053 463.963 109.394C464.006 107.735 464.006 105.25 464.006 102.689" stroke="white" stroke-width="7" stroke-linecap="round"/>
<path d="M515.821 160.565C515.821 160.339 515.821 147.885 515.551 127.22C515.327 110.078 513.994 106.793 513.64 101.85C512.784 89.9054 510.613 85.7705 507.077 78.921C506.265 77.3465 505.715 76.6388 505.087 76.0565C504.459 75.4742 503.727 75.0622 503.122 75.3373C501.629 76.0157 501.466 80.9557 500.735 89.2962C500.298 94.29 499.046 100.758 498.086 112.974C497.127 125.19 496.324 142.939 496.487 152.012C496.65 161.085 497.804 160.944 501.31 160.824C504.816 160.703 510.639 160.608 516.835 160.137" stroke="white" stroke-width="7" stroke-linecap="round"/>
<path d="M500.019 109.03C500.019 105.402 499.79 97.546 499.62 94.1032C499.393 89.5278 499.27 82.2376 499.759 75.7815C499.994 72.6827 513.243 72.999 529.732 73.0781C542.646 73.1401 552.72 74.3697 557.348 76.4926C561.255 78.2843 562.772 82.2905 564.19 87.7751C565.607 93.2578 565.711 104.883 564.205 113.755C563.543 117.655 559.63 120.173 555.712 123.814C552.415 126.877 548.129 126.404 541.889 129.021C534.985 129.717 526.892 130.25 522.163 129.919C520.811 129.851 518.86 129.851 515.344 129.423" stroke="white" stroke-width="7" stroke-linecap="round"/>
<path d="M586.642 114.919C586.642 114.794 586.717 113.973 587.78 111.767C592.981 100.969 607.179 99.3094 616.108 98.9094C617.982 98.8254 618.54 98.1455 618.595 97.5565C618.719 96.2502 616.816 94.9842 615.078 93.9133C612.166 92.1202 608.815 94.1054 605.168 95.2451C600.345 96.7527 598.006 98.9799 597.141 99.4541C596.877 99.5989 596.894 98.5435 597.21 97.829C598.539 94.8209 609.395 90.4328 616.03 87.6437C616.741 87.3448 617.526 87.5956 618.005 88.0467C618.485 88.4978 618.689 89.3332 618.653 90.1574C618.618 90.9816 618.336 91.7693 617.718 92.384C614.543 95.5425 602.27 100.52 594.404 107.295C586.923 113.738 582.953 121.124 583.611 124.225C585.248 131.942 603.281 125.015 608.677 124.725C611.969 124.548 614.433 125.017 615.547 126.098C618.812 129.265 620.55 134.794 621.138 137.995C622.004 142.717 620.882 148.725 618.871 151.965C616.216 156.243 610.778 157.255 599.877 161.246C596.797 162.374 594.282 162.318 591.451 162.813C588.729 163.288 585.632 161.62 582.709 159.079C581.455 157.898 580.667 156.94 579.62 154.57C578.573 152.201 577.293 148.449 575.788 144.113" stroke="white" stroke-width="7" stroke-linecap="round"/>
<path d="M638.039 91.5951C638.489 91.5951 648.759 91.5951 665.76 91.34C681.311 89.719 685.593 88.5971 692.843 85.6009C694.43 84.9299 695.117 84.6657 695.654 84.3936" stroke="white" stroke-width="7" stroke-linecap="round"/>
<path d="M660.935 94.2915C660.935 94.4031 660.935 94.5147 660.935 106.655C660.935 118.796 660.935 142.963 661.102 167.861" stroke="white" stroke-width="7" stroke-linecap="round"/>
<path d="M692.882 108.822C692.671 111.76 692.101 122.725 691.759 129.2C691.249 138.866 691.606 150.846 693.186 153.843C694.706 156.727 698.638 158.989 702.425 160.646C703.311 161.034 704.415 160.813 705.279 160.508C708.007 158.287 710.472 155.656 713.402 152.848C714.054 152.115 714.556 151.385 715.662 149.45" stroke="white" stroke-width="7" stroke-linecap="round"/>
<path d="M750.705 98.5542C750.705 98.7774 750.705 107.426 750.979 122.411C752.599 137.915 753.888 141.136 755.596 145.704C756.082 146.93 756.642 148.137 758.23 151.178" stroke="white" stroke-width="7" stroke-linecap="round"/>
<path d="M799.965 94.2568C799.965 98.1549 801.083 113.743 802.618 122.007C803.653 125.617 804.366 128.579 805.35 133.187C806.24 136.896 807.924 143.388 810.713 151.649" stroke="white" stroke-width="7" stroke-linecap="round"/>
<path d="M836.45 103.819C837.8 103.988 842.2 105.693 845.359 108.3C847.78 110.298 850.472 114.304 853.792 120.516C857.35 127.171 857.727 132.745 858.552 140.612C858.402 153.754 857.651 156.186 857.074 158.051C856.769 158.906 856.44 159.573 854.439 160.443" stroke="white" stroke-width="7" stroke-linecap="round"/>
<path d="M496.809 72.0264C496.809 72.3355 496.993 84.01 497.37 101.978C497.564 108.431 497.761 109.472 497.955 111.985C498.149 114.498 498.333 118.451 498.859 122.887" stroke="white" stroke-width="7" stroke-linecap="round"/>
<path d="M127.323 48.2612C127.135 51.3824 123.234 65.749 119.081 76.1618C114.403 87.8909 113.017 92.3026 112.539 93.4883C108.66 103.126 112.55 66.3224 119.177 48.2196C120.23 45.344 120.836 47.1009 120.973 48.6547C121.244 59.8511 114.512 89.9408 109.592 102.84C109.182 104.296 108.828 105.692 107.749 109.243" stroke="white" stroke-width="7" stroke-linecap="round"/>
</svg>
